<svg xmlns="http://www.w3.org/2000/svg" viewBox="0 0 21.064 22.685">
  <defs>
    <style>
      .cls-1 {
        fill: #afafaf;
      }
    </style>
  </defs>
  <path id="address-book-o" class="cls-1" d="M77.013,8.152a3.291,3.291,0,0,1-6.582,0,3.291,3.291,0,0,1,6.582,0Zm-.608,2.785a2.445,2.445,0,0,1,1.044.215,2.016,2.016,0,0,1,.76.6,4.042,4.042,0,0,1,.5.848,4.555,4.555,0,0,1,.3,1.025q.1.563.146,1.044t.044,1a2.4,2.4,0,0,1-.5,1.5,1.6,1.6,0,0,1-1.336.652H70.076a1.6,1.6,0,0,1-1.335-.652,2.4,2.4,0,0,1-.5-1.5q0-.608.057-1.184a7.99,7.99,0,0,1,.234-1.247,4.638,4.638,0,0,1,.462-1.158,2.414,2.414,0,0,1,.8-.816,2.143,2.143,0,0,1,1.184-.329h.063q.089.051.405.247t.449.266l.418.215a3.121,3.121,0,0,0,.468.2q.184.057.443.114a2.223,2.223,0,0,0,1,0q.26-.057.443-.114a3.12,3.12,0,0,0,.468-.2l.418-.215q.133-.07.449-.266T76.406,10.937ZM85.064,7.7a.411.411,0,0,1-.405.405H83.444v1.62h1.215a.411.411,0,0,1,.405.405v2.43a.411.411,0,0,1-.405.405H83.444v1.62h1.215a.411.411,0,0,1,.405.405v2.43a.411.411,0,0,1-.405.405H83.444v2.836a2.031,2.031,0,0,1-2.025,2.025H66.025A2.031,2.031,0,0,1,64,20.659V2.025a1.95,1.95,0,0,1,.595-1.43A1.95,1.95,0,0,1,66.025,0H81.418a1.95,1.95,0,0,1,1.43.595,1.95,1.95,0,0,1,.595,1.43V4.861h1.215a.411.411,0,0,1,.405.405ZM81.823,20.659V2.025a.411.411,0,0,0-.405-.405H66.025a.411.411,0,0,0-.405.405V20.659a.411.411,0,0,0,.405.405H81.418a.411.411,0,0,0,.405-.405Z" transform="translate(-64)"/>
</svg>
