<svg xmlns="http://www.w3.org/2000/svg" viewBox="0 0 22.161 16.621">
  <defs>
    <style>
      .cls-1 {
        fill: #afafaf;
      }
    </style>
  </defs>
  <path id="address-card-o" class="cls-1" d="M11.08,138.853a1.692,1.692,0,0,1-.4,1.152,1.256,1.256,0,0,1-.985.46H4.155a1.256,1.256,0,0,1-.985-.46,1.692,1.692,0,0,1-.4-1.152,7.686,7.686,0,0,1,.1-1.271,5.125,5.125,0,0,1,.319-1.115,1.9,1.9,0,0,1,.655-.844,1.762,1.762,0,0,1,1.05-.308q.065.043.325.195t.406.233q.146.081.384.189a2.282,2.282,0,0,0,.465.157,2.145,2.145,0,0,0,.909,0,2.282,2.282,0,0,0,.465-.157q.238-.108.384-.189t.406-.233q.26-.152.325-.195a1.762,1.762,0,0,1,1.05.308,1.9,1.9,0,0,1,.655.844,5.125,5.125,0,0,1,.319,1.115A7.686,7.686,0,0,1,11.08,138.853Zm-1.7-5.627a2.457,2.457,0,0,1-2.456,2.456,2.456,2.456,0,0,1,0-4.913,2.457,2.457,0,0,1,2.456,2.456Zm10.009,4.815v.693a.333.333,0,0,1-.346.346H12.812a.333.333,0,0,1-.346-.346v-.693a.333.333,0,0,1,.346-.346h6.233a.333.333,0,0,1,.346.346Zm0-2.727v.606a.388.388,0,0,1-.39.39H12.855a.388.388,0,0,1-.39-.39v-.606a.388.388,0,0,1,.39-.39H19a.388.388,0,0,1,.39.39Zm0-2.813v.693a.333.333,0,0,1-.346.346H12.812a.333.333,0,0,1-.346-.346V132.5a.333.333,0,0,1,.346-.346h6.233a.333.333,0,0,1,.346.346Zm1.385,10.388V129.731a.351.351,0,0,0-.346-.346H1.731a.351.351,0,0,0-.346.346v13.158a.351.351,0,0,0,.346.346H5.54V142.2a.333.333,0,0,1,.346-.346h.693a.333.333,0,0,1,.346.346v1.039h8.31V142.2a.333.333,0,0,1,.346-.346h.693a.333.333,0,0,1,.346.346v1.039h3.809a.351.351,0,0,0,.346-.346Zm1.385-13.158v13.158a1.736,1.736,0,0,1-1.731,1.731H1.731a1.667,1.667,0,0,1-1.223-.509A1.667,1.667,0,0,1,0,142.889V129.731a1.667,1.667,0,0,1,.509-1.223A1.667,1.667,0,0,1,1.731,128h18.7a1.736,1.736,0,0,1,1.731,1.731Z" transform="translate(0 -128)"/>
</svg>
