<svg xmlns="http://www.w3.org/2000/svg" viewBox="0 0 15.228 18">
  <defs>
    <style>
      .cls-1 {
        fill: #75b94e;
      }
    </style>
  </defs>
  <path id="bookmark" class="cls-1" d="M269.848,128a1.315,1.315,0,0,1,.523.107,1.341,1.341,0,0,1,.625.488,1.262,1.262,0,0,1,.232.738v15.335a1.262,1.262,0,0,1-.232.738,1.386,1.386,0,0,1-1.148.583,1.414,1.414,0,0,1-.987-.381l-5.247-5.044-5.247,5.044a1.418,1.418,0,0,1-.987.393,1.315,1.315,0,0,1-.523-.107,1.341,1.341,0,0,1-.625-.488,1.262,1.262,0,0,1-.232-.738V129.332a1.262,1.262,0,0,1,.232-.738,1.341,1.341,0,0,1,.625-.488,1.315,1.315,0,0,1,.523-.107Z" transform="translate(-256 -128)"/>
</svg>
