<svg xmlns="http://www.w3.org/2000/svg" viewBox="0 0 14 15.077">
  <defs>
    <style>
      .cls-1 {
        fill: #b2d5a2;
      }
    </style>
  </defs>
  <path id="calendar" class="cls-1" d="M65.077,14H67.5V11.577H65.077Zm2.962,0h2.692V11.577H68.038Zm-2.962-2.962H67.5V8.346H65.077Zm2.962,0h2.692V8.346H68.038ZM65.077,7.808H67.5V5.385H65.077ZM71.269,14h2.692V11.577H71.269ZM68.038,7.808h2.692V5.385H68.038ZM74.5,14h2.423V11.577H74.5Zm-3.231-2.962h2.692V8.346H71.269ZM68.308,3.769V1.346a.273.273,0,0,0-.269-.269H67.5a.273.273,0,0,0-.269.269V3.769a.273.273,0,0,0,.269.269h.538a.273.273,0,0,0,.269-.269ZM74.5,11.038h2.423V8.346H74.5ZM71.269,7.808h2.692V5.385H71.269Zm3.231,0h2.423V5.385H74.5Zm.269-4.038V1.346a.273.273,0,0,0-.269-.269h-.538a.273.273,0,0,0-.269.269V3.769a.273.273,0,0,0,.269.269H74.5a.273.273,0,0,0,.269-.269ZM78,3.231V14a1.092,1.092,0,0,1-1.077,1.077H65.077A1.092,1.092,0,0,1,64,14V3.231a1.035,1.035,0,0,1,.32-.757,1.035,1.035,0,0,1,.757-.32h1.077V1.346a1.3,1.3,0,0,1,.4-.951A1.3,1.3,0,0,1,67.5,0h.538a1.3,1.3,0,0,1,.951.4,1.3,1.3,0,0,1,.4.951v.808h3.231V1.346a1.3,1.3,0,0,1,.4-.951,1.3,1.3,0,0,1,.951-.4H74.5a1.3,1.3,0,0,1,.951.4,1.3,1.3,0,0,1,.4.951v.808h1.077a1.035,1.035,0,0,1,.757.32A1.035,1.035,0,0,1,78,3.231Z" transform="translate(-64)"/>
</svg>
