<svg xmlns="http://www.w3.org/2000/svg" viewBox="0 0 22.722 22.723">
  <defs>
    <style>
      .cls-1 {
        fill: #afafaf;
      }
    </style>
  </defs>
  <path id="cog" class="cls-1" d="M143.148,139.361a3.788,3.788,0,1,0-1.109,2.678A3.649,3.649,0,0,0,143.148,139.361Zm7.574-1.612v3.284a.57.57,0,0,1-.118.34.45.45,0,0,1-.3.192l-2.737.414a9.473,9.473,0,0,1-.577,1.346q.518.74,1.583,2.041a.572.572,0,0,1,.148.37.494.494,0,0,1-.133.34,15.032,15.032,0,0,1-1.465,1.6q-1.065,1.05-1.391,1.05a.722.722,0,0,1-.385-.133l-2.041-1.6a8.443,8.443,0,0,1-1.346.562,24.193,24.193,0,0,1-.429,2.752.5.5,0,0,1-.533.414h-3.284a.559.559,0,0,1-.362-.126.438.438,0,0,1-.17-.318l-.414-2.722a9.143,9.143,0,0,1-1.331-.547l-2.086,1.583a.532.532,0,0,1-.37.133.51.51,0,0,1-.37-.163,19.526,19.526,0,0,1-2.441-2.485.578.578,0,0,1-.1-.34.57.57,0,0,1,.118-.34q.222-.311.754-.984t.8-1.043a7.322,7.322,0,0,1-.607-1.465l-2.707-.4a.466.466,0,0,1-.311-.185.559.559,0,0,1-.118-.348V137.69a.57.57,0,0,1,.118-.34.445.445,0,0,1,.281-.192l2.752-.414a7.308,7.308,0,0,1,.577-1.361q-.592-.843-1.583-2.041a.556.556,0,0,1-.148-.355.623.623,0,0,1,.133-.34,14.686,14.686,0,0,1,1.457-1.59q1.072-1.058,1.4-1.058a.63.63,0,0,1,.385.148l2.041,1.583a8.442,8.442,0,0,1,1.346-.562,24.192,24.192,0,0,1,.429-2.752.5.5,0,0,1,.533-.414H141a.559.559,0,0,1,.362.126.438.438,0,0,1,.17.318l.414,2.722a9.141,9.141,0,0,1,1.331.547l2.1-1.583a.48.48,0,0,1,.355-.133.572.572,0,0,1,.37.148,20.238,20.238,0,0,1,2.441,2.515.477.477,0,0,1,.1.325.57.57,0,0,1-.118.34q-.222.311-.754.984t-.8,1.043a8.909,8.909,0,0,1,.607,1.45l2.707.414a.466.466,0,0,1,.311.185A.56.56,0,0,1,150.722,137.749Z" transform="translate(-128 -128)"/>
</svg>
