<svg xmlns="http://www.w3.org/2000/svg" viewBox="0 0 24.069 18.913">
  <defs>
    <style>
      .cls-1 {
        fill: #afafaf;
      }
    </style>
  </defs>
  <path id="comments-o" class="cls-1" d="M9.456,257.719a10.454,10.454,0,0,0-3.841.7,7.2,7.2,0,0,0-2.841,1.894,3.817,3.817,0,0,0-1.054,2.565A3.66,3.66,0,0,0,2.431,265a6.178,6.178,0,0,0,2,1.773l1.3.752-.47,1.128q.457-.269.833-.524l.591-.416.712.134a11.618,11.618,0,0,0,2.055.188,10.456,10.456,0,0,0,3.841-.7,7.2,7.2,0,0,0,2.841-1.894,3.648,3.648,0,0,0,0-5.131,7.2,7.2,0,0,0-2.841-1.894A10.454,10.454,0,0,0,9.456,257.719Zm0-1.719a12.1,12.1,0,0,1,4.748.92,8.531,8.531,0,0,1,3.445,2.505,5.35,5.35,0,0,1,0,6.9,8.531,8.531,0,0,1-3.445,2.505,12.1,12.1,0,0,1-4.748.92,13.488,13.488,0,0,1-2.364-.215,11.3,11.3,0,0,1-3.734,1.719,11.281,11.281,0,0,1-1.155.215h-.04a.42.42,0,0,1-.275-.108.444.444,0,0,1-.154-.282A.274.274,0,0,1,1.719,271a.532.532,0,0,1,.007-.087.285.285,0,0,1,.027-.081l.034-.067.047-.074.054-.067.06-.067.054-.06q.067-.081.309-.336t.349-.4q.107-.141.3-.39a3.4,3.4,0,0,0,.336-.517q.141-.269.275-.591a7.848,7.848,0,0,1-2.619-2.377A5.276,5.276,0,0,1,0,262.877a5.424,5.424,0,0,1,1.263-3.452,8.531,8.531,0,0,1,3.445-2.505A12.1,12.1,0,0,1,9.456,256ZM20.5,271.7q.134.322.275.591a3.4,3.4,0,0,0,.336.517q.195.248.3.39t.349.4q.242.255.309.336.013.013.054.06t.06.067a.573.573,0,0,1,.054.067.615.615,0,0,1,.047.074l.034.067.027.081.007.087-.013.087a.5.5,0,0,1-.175.3.4.4,0,0,1-.3.094,10.729,10.729,0,0,1-4.889-1.934,13.488,13.488,0,0,1-2.364.215,11.284,11.284,0,0,1-6.34-1.773q.779.054,1.182.054a14.187,14.187,0,0,0,4.15-.6,11.889,11.889,0,0,0,3.546-1.733,8.987,8.987,0,0,0,2.579-2.847,6.911,6.911,0,0,0,.591-5.453,7.957,7.957,0,0,1,2.74,2.391,5.242,5.242,0,0,1,.054,6.1A7.879,7.879,0,0,1,20.5,271.7Z" transform="translate(0 -256)"/>
</svg>
