<svg xmlns="http://www.w3.org/2000/svg" viewBox="0 0 105.289 82.734">
  <defs>
    <style>
      .cls-1 {
        fill: #75b94e;
      }
    </style>
  </defs>
  <path id="comments-o" class="cls-1" d="M41.364,263.521a45.738,45.738,0,0,0-16.8,3.055,31.485,31.485,0,0,0-12.427,8.284,16.7,16.7,0,0,0-4.612,11.222,16.01,16.01,0,0,0,3.114,9.283,27.03,27.03,0,0,0,8.755,7.756l5.7,3.29-2.056,4.935q2-1.175,3.643-2.291l2.585-1.821,3.114.588a50.823,50.823,0,0,0,8.99.823,45.738,45.738,0,0,0,16.8-3.055A31.485,31.485,0,0,0,70.594,297.3a15.959,15.959,0,0,0,0-22.444,31.485,31.485,0,0,0-12.427-8.284A45.738,45.738,0,0,0,41.364,263.521Zm0-7.521a52.925,52.925,0,0,1,20.77,4.025A37.315,37.315,0,0,1,77.2,270.983a23.4,23.4,0,0,1,0,30.2,37.315,37.315,0,0,1-15.071,10.958,52.925,52.925,0,0,1-20.77,4.025,59.019,59.019,0,0,1-10.341-.94,49.414,49.414,0,0,1-16.334,7.521,49.4,49.4,0,0,1-5.053.94H9.46a1.836,1.836,0,0,1-1.2-.47,1.941,1.941,0,0,1-.676-1.234,1.2,1.2,0,0,1-.059-.382,2.327,2.327,0,0,1,.029-.382,1.245,1.245,0,0,1,.118-.353l.147-.294.206-.323.235-.294.264-.294.235-.264q.294-.353,1.351-1.469t1.528-1.733q.47-.617,1.322-1.7a14.867,14.867,0,0,0,1.469-2.262q.617-1.175,1.2-2.585a34.332,34.332,0,0,1-11.457-10.4A23.079,23.079,0,0,1,0,286.083a23.727,23.727,0,0,1,5.523-15.1,37.315,37.315,0,0,1,15.071-10.958A52.925,52.925,0,0,1,41.364,256Zm48.3,68.685q.588,1.41,1.2,2.585a14.867,14.867,0,0,0,1.469,2.262q.852,1.087,1.322,1.7t1.528,1.733q1.058,1.116,1.351,1.469.059.059.235.264t.264.294a2.5,2.5,0,0,1,.235.294,2.651,2.651,0,0,1,.206.323l.147.294.118.353.029.382-.059.382a2.178,2.178,0,0,1-.764,1.293,1.772,1.772,0,0,1-1.293.411,46.931,46.931,0,0,1-21.387-8.461,59.022,59.022,0,0,1-10.341.94q-15.923,0-27.732-7.756,3.408.235,5.17.235a62.064,62.064,0,0,0,18.155-2.644,52.009,52.009,0,0,0,15.511-7.579,39.313,39.313,0,0,0,11.281-12.456A30.231,30.231,0,0,0,88.9,277.152a34.81,34.81,0,0,1,11.986,10.458,22.932,22.932,0,0,1,.235,26.7A34.464,34.464,0,0,1,89.66,324.685Z" transform="translate(0 -256)"/>
</svg>
