<svg xmlns="http://www.w3.org/2000/svg" viewBox="0 0 24.41 22.515">
  <defs>
    <style>
      .cls-1 {
        fill: #afafaf;
      }
    </style>
  </defs>
  <path id="book" class="cls-1" d="M87.51,133.13a2.074,2.074,0,0,1,.264,1.891L83.743,148.3a3.028,3.028,0,0,1-1.121,1.576,2.925,2.925,0,0,1-1.8.638H67.3a3.588,3.588,0,0,1-2.177-.784,4.117,4.117,0,0,1-1.458-1.928,2.659,2.659,0,0,1-.029-1.862q0-.059.044-.4t.059-.542a.816.816,0,0,0-.044-.315.726.726,0,0,1-.044-.286.912.912,0,0,1,.117-.308,3.592,3.592,0,0,1,.242-.344,3.59,3.59,0,0,0,.242-.344,9.824,9.824,0,0,0,.66-1.341,7.961,7.961,0,0,0,.44-1.341,1.144,1.144,0,0,0,.007-.44,1.287,1.287,0,0,1-.007-.41,1.228,1.228,0,0,1,.249-.41,2.409,2.409,0,0,0,.249-.337,8.964,8.964,0,0,0,.616-1.349,6,6,0,0,0,.366-1.319,2.119,2.119,0,0,0-.037-.469q-.051-.337.007-.41a1.176,1.176,0,0,1,.322-.447q.264-.257.322-.33a6.048,6.048,0,0,0,.623-1.239,5.555,5.555,0,0,0,.4-1.414,1.213,1.213,0,0,0-.044-.374.952.952,0,0,1-.029-.388.828.828,0,0,1,.132-.264q.1-.147.264-.337t.249-.308a3.3,3.3,0,0,0,.242-.447q.125-.271.22-.513t.235-.528a2.525,2.525,0,0,1,.286-.469,1.7,1.7,0,0,1,.388-.344.979.979,0,0,1,.528-.169,3.043,3.043,0,0,1,.7.081l-.015.044a4.084,4.084,0,0,1,.748-.132H83.523a1.931,1.931,0,0,1,1.671.821,2.091,2.091,0,0,1,.264,1.906l-4.016,13.28a5.73,5.73,0,0,1-1.048,2.25,2.7,2.7,0,0,1-1.884.506H65.773a.646.646,0,0,0-.557.22.669.669,0,0,0-.015.63q.352,1.026,2.111,1.026H80.841a1.627,1.627,0,0,0,.821-.227,1.052,1.052,0,0,0,.513-.608l4.4-14.468a2.368,2.368,0,0,0,.073-.835A1.938,1.938,0,0,1,87.51,133.13Zm-15.6.029a.382.382,0,0,0,.029.33.32.32,0,0,0,.293.139h8.912a.613.613,0,0,0,.374-.139.655.655,0,0,0,.242-.33l.308-.938a.382.382,0,0,0-.029-.33.32.32,0,0,0-.293-.139H72.838a.613.613,0,0,0-.374.139.655.655,0,0,0-.242.33ZM70.7,136.912a.382.382,0,0,0,.029.33.32.32,0,0,0,.293.139h8.912a.613.613,0,0,0,.374-.139.655.655,0,0,0,.242-.33l.308-.938a.382.382,0,0,0-.029-.33.32.32,0,0,0-.293-.139H71.621a.613.613,0,0,0-.374.139.655.655,0,0,0-.242.33Z" transform="translate(-63.478 -128)"/>
</svg>
