<svg xmlns="http://www.w3.org/2000/svg" viewBox="0 0 22.63 22.63">
  <defs>
    <style>
      .cls-1 {
        fill: #afafaf;
      }
    </style>
  </defs>
  <path id="files-o" class="cls-1" d="M21.418,4.849A1.207,1.207,0,0,1,22.63,6.062V21.418a1.207,1.207,0,0,1-1.212,1.212H9.295a1.207,1.207,0,0,1-1.212-1.212V17.781H1.212a1.169,1.169,0,0,1-.859-.354A1.169,1.169,0,0,1,0,16.569V8.082A2.915,2.915,0,0,1,.253,6.971a2.938,2.938,0,0,1,.606-.96L6.011.859a2.938,2.938,0,0,1,.96-.606A2.915,2.915,0,0,1,8.082,0h5.253a1.169,1.169,0,0,1,.859.354,1.169,1.169,0,0,1,.354.859V5.355a3.213,3.213,0,0,1,1.616-.505Zm-6.87,2.69-3.776,3.776h3.776ZM6.466,2.69,2.69,6.466H6.466Zm2.475,8.171L12.932,6.87V1.616H8.082V6.87A1.207,1.207,0,0,1,6.87,8.082H1.616v8.082H8.082V12.932a2.915,2.915,0,0,1,.253-1.111A2.938,2.938,0,0,1,8.941,10.861ZM21.014,21.014V6.466H16.164v5.253a1.207,1.207,0,0,1-1.212,1.212H9.7v8.082Z" transform="translate(0)"/>
</svg>
