<svg xmlns="http://www.w3.org/2000/svg" viewBox="0 0 19.397 22.63">
  <defs>
    <style>
      .cls-1 {
        fill: #afafaf;
      }
    </style>
  </defs>
  <path id="file-text-o" class="cls-1" d="M146.539,4.8a2.939,2.939,0,0,1,.606.96A2.915,2.915,0,0,1,147.4,6.87V21.418a1.207,1.207,0,0,1-1.212,1.212H129.212A1.207,1.207,0,0,1,128,21.418V1.212a1.169,1.169,0,0,1,.354-.859A1.169,1.169,0,0,1,129.212,0h11.315a2.915,2.915,0,0,1,1.111.253,2.938,2.938,0,0,1,.96.606Zm-5.607-3.081V6.466h4.748a1.379,1.379,0,0,0-.278-.518L141.449,2A1.379,1.379,0,0,0,140.932,1.717Zm4.849,19.3V8.082h-5.253a1.207,1.207,0,0,1-1.212-1.212V1.616h-9.7v19.4ZM132.849,10.1a.389.389,0,0,1,.4-.4h8.89a.389.389,0,0,1,.4.4v.808a.389.389,0,0,1-.4.4h-8.89a.389.389,0,0,1-.4-.4Zm9.295,2.829a.389.389,0,0,1,.4.4v.808a.389.389,0,0,1-.4.4h-8.89a.389.389,0,0,1-.4-.4v-.808a.389.389,0,0,1,.4-.4Zm0,3.233a.389.389,0,0,1,.4.4v.808a.389.389,0,0,1-.4.4h-8.89a.389.389,0,0,1-.4-.4v-.808a.389.389,0,0,1,.4-.4Z" transform="translate(-128)"/>
</svg>
