<svg xmlns="http://www.w3.org/2000/svg" viewBox="0 0 76 88.667">
  <defs>
    <style>
      .cls-1 {
        fill: #75b94e;
      }
    </style>
  </defs>
  <path id="file-o" class="cls-1" d="M200.635,18.8a11.512,11.512,0,0,1,2.375,3.76,11.422,11.422,0,0,1,.99,4.354v57a4.73,4.73,0,0,1-4.75,4.75h-66.5a4.73,4.73,0,0,1-4.75-4.75V4.75a4.581,4.581,0,0,1,1.385-3.365A4.581,4.581,0,0,1,132.75,0h44.333a11.422,11.422,0,0,1,4.354.99,11.511,11.511,0,0,1,3.76,2.375ZM178.667,6.729v18.6h18.6a5.4,5.4,0,0,0-1.089-2.029L180.7,7.818A5.4,5.4,0,0,0,178.667,6.729Zm19,75.6V31.667H177.083a4.73,4.73,0,0,1-4.75-4.75V6.333h-38v76Z" transform="translate(-128)"/>
</svg>
