<svg xmlns="http://www.w3.org/2000/svg" viewBox="0 0 22.967 17.225">
  <defs>
    <style>
      .cls-1 {
        fill: #75b94e;
      }
    </style>
  </defs>
  <path id="id-card-o" class="cls-1" d="M10.048,140.156a1.6,1.6,0,0,1-.353,1.049,1.062,1.062,0,0,1-.847.432H4.071a1.062,1.062,0,0,1-.847-.432,1.6,1.6,0,0,1-.353-1.049,7.089,7.089,0,0,1,.084-1.127,4.915,4.915,0,0,1,.275-1.009,1.69,1.69,0,0,1,.572-.768,1.491,1.491,0,0,1,.908-.28,2.381,2.381,0,0,0,1.749.718,2.381,2.381,0,0,0,1.749-.718,1.491,1.491,0,0,1,.908.28,1.69,1.69,0,0,1,.572.768,4.915,4.915,0,0,1,.275,1.009A7.089,7.089,0,0,1,10.048,140.156Zm-1.435-4.979a2.144,2.144,0,0,1-2.153,2.153,2.153,2.153,0,1,1,0-4.306,2.144,2.144,0,0,1,2.153,2.153ZM20.1,139.842v.718a.345.345,0,0,1-.359.359H11.842a.345.345,0,0,1-.359-.359v-.718a.345.345,0,0,1,.359-.359h7.895a.345.345,0,0,1,.359.359Zm-4.306-2.871v.718a.345.345,0,0,1-.359.359H11.842a.345.345,0,0,1-.359-.359v-.718a.345.345,0,0,1,.359-.359h3.589a.345.345,0,0,1,.359.359Zm4.306,0v.718a.345.345,0,0,1-.359.359H17.584a.345.345,0,0,1-.359-.359v-.718a.345.345,0,0,1,.359-.359h2.153a.345.345,0,0,1,.359.359Zm0-2.871v.718a.345.345,0,0,1-.359.359H11.842a.345.345,0,0,1-.359-.359V134.1a.345.345,0,0,1,.359-.359h7.895a.345.345,0,0,1,.359.359Zm1.435,9.33v-12.56H1.435v12.56a.364.364,0,0,0,.359.359H21.173a.364.364,0,0,0,.359-.359Zm1.435-13.637v13.637a1.8,1.8,0,0,1-1.794,1.794H1.794A1.728,1.728,0,0,1,.527,144.7,1.728,1.728,0,0,1,0,143.431V129.794a1.728,1.728,0,0,1,.527-1.267A1.728,1.728,0,0,1,1.794,128H21.173a1.8,1.8,0,0,1,1.794,1.794Z" transform="translate(0 -128)"/>
</svg>
