<?xml version="1.0" encoding="UTF-8"?>
<svg width="89px" height="36px" viewBox="0 0 89 36" version="1.1" xmlns="http://www.w3.org/2000/svg" xmlns:xlink="http://www.w3.org/1999/xlink">
    <!-- Generator: Sketch 46.2 (44496) - http://www.bohemiancoding.com/sketch -->
    <title>keplar_logo</title>
    <desc>Created with Sketch.</desc>
    <defs></defs>
    <g id="Symbols" stroke="none" stroke-width="1" fill="none" fill-rule="evenodd">
        <g id="Logo" transform="translate(-5.000000, -10.000000)">
            <g id="keplar_logo" transform="translate(5.000000, 9.000000)">
                <path d="M70.2298809,24.4022251 L65.6940537,24.4022251 L65.069938,26.4588741 L61,26.4588741 L65.8434899,14 L70.1859291,14 L75.0294189,26.4588741 L70.862787,26.4588741 L70.2298809,24.4022251 Z M69.3947964,21.7081847 L67.9707577,17.229449 L66.5555093,21.7081847 L69.3947964,21.7081847 Z M75.7911571,26.4588741 L75.7911571,14 L82.3771645,14 C83.598417,14 84.5317889,14.1019816 85.1773081,14.3059478 C85.8228273,14.509914 86.3433056,14.8880957 86.7387588,15.4405042 C87.134212,15.9929127 87.3319357,16.6657078 87.3319357,17.4589098 C87.3319357,18.1501287 87.1807352,18.7464376 86.8783299,19.2478546 C86.5759245,19.7492715 86.1601233,20.1557814 85.6309139,20.4673965 C85.2936156,20.665697 84.8312912,20.8300006 84.2439269,20.9603124 C84.7149814,21.113287 85.0580901,21.2662594 85.2732632,21.4192341 C85.4186504,21.5212172 85.6294586,21.7393444 85.9056943,22.0736224 C86.18193,22.4079004 86.366569,22.6656871 86.4596168,22.8469904 L88.3699951,26.4588741 L83.9037225,26.4588741 L81.7927109,22.6515238 C81.5251984,22.1586054 81.286767,21.8384966 81.0774094,21.6911876 C80.7924505,21.4985529 80.4696957,21.402237 80.1091355,21.402237 L79.7602079,21.402237 L79.7602079,26.4588741 L75.7911571,26.4588741 Z M79.7602079,19.0481386 L81.426337,19.0481386 C81.6066171,19.0481386 81.9555412,18.9914822 82.4731196,18.8781676 C82.7348166,18.8271761 82.9485326,18.6968663 83.114274,18.4872343 C83.2800154,18.2776024 83.3628848,18.0368126 83.3628848,17.7648576 C83.3628848,17.3625909 83.2320383,17.0538133 82.9703414,16.8385157 C82.7086444,16.623218 82.217243,16.5155708 81.4961225,16.5155708 L79.7602079,16.5155708 L79.7602079,19.0481386 Z" id="KEPLAR-Copy-4" fill="#009264"></path>
                <g id="Group-10" transform="translate(0.000000, 1.000000)">
                    <polygon id="Path" fill="#354052" points="50.6298916 13.1229736 54.658206 13.1229736 54.658206 22.4290716 60.945222 22.4290716 60.945222 25.4693443 50.6298916 25.4693443"></polygon>
                    <path d="M54.6283176,16.9547611 L54.658206,22.4290716 L60.945222,22.4290716 L60.945222,25.4693443 L50.6298916,25.4693443 L50.6203411,20.3752272 C46.6118883,23.4400949 41.5789499,26.4094077 35.8687264,28.9311798 C29.1624339,31.89284 22.5573162,33.7799698 16.8760942,34.5510351 L18.1439473,33.0797998 C23.6319684,32.3031298 30.0607044,30.4428818 36.6068858,27.5519305 C51.9570163,20.7729435 62.3079329,10.8195497 60.2851019,4.95455203 C61.4314134,8.19852805 59.2077498,12.5413259 54.6283176,16.9547611 L54.6283176,16.9547611 Z" id="Combined-Shape" fill="#009264"></path>
                    <path d="M50.6203411,20.3752272 C46.6118883,23.4400949 41.5789499,26.4094077 35.8687264,28.9311798 C29.1624339,31.89284 22.5573162,33.7799698 16.8760942,34.5510351 L18.1439473,33.0797998 C23.6319684,32.3031298 30.0607044,30.4428818 36.6068858,27.5519305 C51.9570163,20.7729435 62.3079329,10.8195497 60.2851019,4.95455203 C61.4314134,8.19852805 59.2077498,12.5413259 54.6283176,16.9547611 L50.6203411,20.3752272 Z" id="Combined-Shape-Copy" fill="#9E0F03"></path>
                    <polygon id="Shape-Copy-2" fill="#AF0E0E" points="12.8721255 33.5561398 15.0380174 35.681914 17.0342406 33.3480014"></polygon>
                    <path d="M24.8344313,6.11961487 C8.40660072,13.4292412 -2.40824996,24.4758129 0.678786268,30.7928233 C2.1945328,33.8944994 7.23931485,35.3166939 13.4591948,35.0575159 C11.1903099,32.3181308 13.4591948,35.0575159 12.2485116,33.5812311 C7.5784864,33.4820805 4.21537568,32.2370412 3.01974842,29.7904259 C0.176357129,23.9719868 10.6682033,13.5611934 26.4539427,6.53726803 C42.2255653,-0.480376056 57.3145654,-1.4621444 60.17731,4.33894852 C57.0821873,-1.99468569 41.262262,-1.19001147 24.8344313,6.11961487 Z" id="Combined-Shape-Copy-3" fill="#288757"></path>
                </g>
                <g id="Group-11"></g>
                <g id="Group-3" transform="translate(7.000000, 14.000000)" fill="#354052">
                    <path d="M28.9658819,0.066989512 L36.1914525,0.066989512 C37.7651571,0.066989512 38.9438185,0.384440232 39.7274722,1.01935119 C40.5111258,1.65426216 40.9029468,2.55777574 40.9029468,3.72991906 C40.9029468,4.93462191 40.4759419,5.87612106 39.6219193,6.55444474 C38.7678968,7.23276841 37.4644923,7.57192517 35.711667,7.57192517 L33.3319306,7.57192517 L33.3319306,12 L28.9658819,12 L28.9658819,0.066989512 Z M33.3319306,5.15439166 L34.3970545,5.15439166 C35.2350842,5.15439166 35.8236152,5.03093861 36.1626654,4.78402879 C36.5017156,4.53711897 36.6712381,4.22102488 36.6712381,3.83573703 C36.6712381,3.46130236 36.5241053,3.14385164 36.2298354,2.88337534 C35.9355654,2.62289905 35.3822183,2.49266286 34.5697773,2.49266286 L33.3319306,2.49266286 L33.3319306,5.15439166 Z" id="Combined-Shape"></path>
                    <g id="E" transform="translate(15.870968, 0.000000)">
                        <rect id="Rectangle-2" x="0" y="0" width="11.1964533" height="2.44791494"></rect>
                        <rect id="Rectangle-2-Copy-2" x="0" y="9.13561644" width="11.1964533" height="2.86438356"></rect>
                        <rect id="Rectangle-2-Copy" x="0" y="4.61913619" width="10.6826283" height="2.34525899"></rect>
                    </g>
                    <polygon id="Path" points="0.0797091014 0.066989512 4.42656632 0.066989512 4.42656632 4.57646278 8.98452919 0.066989512 14.7611474 0.066989512 9.63703756 4.56832294 14.9914445 12 9.63703756 12 6.67196277 7.0916744 4.42656632 9.08593605 4.42656632 12 0.0797091014 12"></polygon>
                </g>
            </g>
        </g>
    </g>
</svg>