<svg xmlns="http://www.w3.org/2000/svg" viewBox="0 0 20.687 16.254">
  <defs>
    <style>
      .cls-1 {
        fill: #afafaf;
      }
    </style>
  </defs>
  <path id="list" class="cls-1" d="M2.955,141.668v2.216a.374.374,0,0,1-.369.369H.369a.355.355,0,0,1-.26-.11.355.355,0,0,1-.11-.26v-2.216a.355.355,0,0,1,.11-.26.355.355,0,0,1,.26-.11H2.586a.375.375,0,0,1,.369.369Zm0-4.433v2.216a.375.375,0,0,1-.369.369H.369a.355.355,0,0,1-.26-.11.355.355,0,0,1-.11-.26v-2.216a.355.355,0,0,1,.11-.26.355.355,0,0,1,.26-.11H2.586a.375.375,0,0,1,.369.369Zm0-4.433v2.216a.375.375,0,0,1-.369.369H.369a.355.355,0,0,1-.26-.11.355.355,0,0,1-.11-.26V132.8a.355.355,0,0,1,.11-.26.355.355,0,0,1,.26-.11H2.586a.375.375,0,0,1,.369.369Zm17.732,8.866v2.216a.374.374,0,0,1-.369.369H4.8a.374.374,0,0,1-.369-.369v-2.216A.375.375,0,0,1,4.8,141.3H20.317a.375.375,0,0,1,.369.369Zm-17.732-13.3v2.216a.375.375,0,0,1-.369.369H.369a.355.355,0,0,1-.26-.11.355.355,0,0,1-.11-.26v-2.216a.355.355,0,0,1,.11-.26.355.355,0,0,1,.26-.11H2.586a.375.375,0,0,1,.369.369Zm17.732,8.866v2.216a.375.375,0,0,1-.369.369H4.8a.375.375,0,0,1-.369-.369v-2.216a.375.375,0,0,1,.369-.369H20.317a.375.375,0,0,1,.369.369Zm0-4.433v2.216a.375.375,0,0,1-.369.369H4.8a.375.375,0,0,1-.369-.369V132.8a.375.375,0,0,1,.369-.369H20.317a.375.375,0,0,1,.369.369Zm0-4.433v2.216a.375.375,0,0,1-.369.369H4.8a.375.375,0,0,1-.369-.369v-2.216A.375.375,0,0,1,4.8,128H20.317a.375.375,0,0,1,.369.369Z" transform="translate(0 -128)"/>
</svg>
