<svg xmlns="http://www.w3.org/2000/svg" viewBox="0 0 58.7 34.69"><defs><style>.a{fill:#75b94e;}</style></defs><g transform="translate(0 0.2)"><path class="a" d="M35.4,32h4.817L43.8,40.865,47.6,32h4.612l-6,13.169H41.549Z" transform="translate(-17.261 -15.701)"/><path class="a" d="M74.257,33.943a3.2,3.2,0,0,1,3.177,1.588,21.106,21.106,0,0,0-3.382.41,13.677,13.677,0,0,0-3.023,1.127s-.154-2.716,3.228-3.126m.922,7.635a3.3,3.3,0,0,1-3.536-1.845L82.25,37.222s-.666-3.843-3.177-5.38A7.722,7.722,0,0,0,73.8,30.458a8.324,8.324,0,0,0-5.227,2.665,6.469,6.469,0,0,0-1.537,5.124,7.377,7.377,0,0,0,2.357,4.663,7.78,7.78,0,0,0,3.946,1.947,8.3,8.3,0,0,0,2.2.1,8.694,8.694,0,0,0,3.433-1.127,5.73,5.73,0,0,0,2.05-2.1A8.386,8.386,0,0,0,82.1,39.323l-4.2.359a2.836,2.836,0,0,1-2.716,1.9" transform="translate(-32.649 -14.927)"/><rect class="a" width="4.817" height="13.271" transform="translate(12.4 16.248)"/><rect class="a" width="4.868" height="3.126" transform="translate(12.451 10.304)"/><path class="a" d="M0,39.415V20.2H5.175V35.06h5.534v4.407Z" transform="translate(0 -9.947)"/><path class="a" d="M60.579,12.2c4.407-3.484,8.66-6.456,16.09-7.43.41-.051.82-.1,1.281-.154,1.384,2.665,2.511,4.253,3.382,7.174,2.972,9.633,1.9,14.6-1.127,22.085l1.742.615c4.407-7.225,6.354-12.656,5.534-22.341a33.978,33.978,0,0,0-1.588-7.737h0c-.051-.256-.154-.461-.2-.717,0-.051,0-.1-.051-.1A23.345,23.345,0,0,0,84.713.927C84.559.569,84.457.21,84.3-.2c-.769.051-1.537.154-2.306.256a40.579,40.579,0,0,0-7.225,1.588A33.414,33.414,0,0,0,59.4,11.227l1.179.974" transform="translate(-28.963 0)"/></g></svg>