<svg xmlns="http://www.w3.org/2000/svg" viewBox="0 0 35 35">
  <defs>
    <style>
      .cls-1 {
        fill: #75b94e;
      }
    </style>
  </defs>
  <path id="phone-square" class="cls-1" d="M157.167,152.268a1.059,1.059,0,0,0-.046-.365,1.339,1.339,0,0,0-.41-.376,9.285,9.285,0,0,0-.923-.57q-.558-.308-1.082-.6t-1.037-.57q-.513-.273-.649-.342-.114-.068-.433-.3a3.509,3.509,0,0,0-.57-.342,1.157,1.157,0,0,0-.479-.114,1.356,1.356,0,0,0-.832.467,7.767,7.767,0,0,0-.9,1.025,8.893,8.893,0,0,1-.877,1.025,1.276,1.276,0,0,1-.763.467,1.114,1.114,0,0,1-.376-.08,3.569,3.569,0,0,1-.353-.148q-.137-.068-.387-.216t-.319-.194a17.15,17.15,0,0,1-3.874-2.882,18.161,18.161,0,0,1-2.894-3.885q-.046-.068-.194-.319t-.216-.387a3.571,3.571,0,0,1-.148-.353,1.114,1.114,0,0,1-.08-.376,1.276,1.276,0,0,1,.467-.763,8.893,8.893,0,0,1,1.025-.877,7.771,7.771,0,0,0,1.025-.9,1.356,1.356,0,0,0,.467-.832,1.157,1.157,0,0,0-.114-.479,3.508,3.508,0,0,0-.342-.57q-.228-.319-.3-.433-.068-.137-.342-.649t-.57-1.037q-.3-.524-.6-1.082a9.284,9.284,0,0,0-.57-.923,1.339,1.339,0,0,0-.376-.41,1.06,1.06,0,0,0-.365-.046,6,6,0,0,0-2.3.5,4.112,4.112,0,0,0-1.823,2.153,7.233,7.233,0,0,0-.775,2.974,5.643,5.643,0,0,0,.057.775q.057.41.114.7a7.48,7.48,0,0,0,.205.752q.148.467.228.672t.285.752q.205.547.251.684a23.176,23.176,0,0,0,12.236,12.236q.137.046.684.251t.752.285q.205.08.672.228a7.484,7.484,0,0,0,.752.205q.285.057.7.114a5.643,5.643,0,0,0,.775.057,7.233,7.233,0,0,0,2.974-.775,4.112,4.112,0,0,0,2.153-1.823A6,6,0,0,0,157.167,152.268ZM163,134.563v21.875A6.574,6.574,0,0,1,156.438,163H134.563A6.574,6.574,0,0,1,128,156.438V134.563A6.574,6.574,0,0,1,134.563,128h21.875A6.574,6.574,0,0,1,163,134.563Z" transform="translate(-128 -128)"/>
</svg>
