<svg xmlns="http://www.w3.org/2000/svg" viewBox="0 0 17.696 17.696">
  <defs>
    <style>
      .cls-1 {
        fill: #afafaf;
      }
    </style>
  </defs>
  <path id="search-plus" class="cls-1" d="M74.89,135.146v.681a.345.345,0,0,1-.34.34H72.167v2.382a.345.345,0,0,1-.34.34h-.681a.345.345,0,0,1-.34-.34v-2.382H68.424a.345.345,0,0,1-.34-.34v-.681a.345.345,0,0,1,.34-.34h2.382v-2.382a.345.345,0,0,1,.34-.34h.681a.345.345,0,0,1,.34.34v2.382h2.382a.345.345,0,0,1,.34.34Zm1.361.34a4.775,4.775,0,1,0-1.4,3.366A4.588,4.588,0,0,0,76.251,135.487Zm5.445,8.848a1.362,1.362,0,0,1-1.361,1.361,1.264,1.264,0,0,1-.957-.4l-3.648-3.637a7.282,7.282,0,0,1-4.243,1.319,7.357,7.357,0,0,1-2.909-.59A7.331,7.331,0,0,1,64.59,138.4a7.462,7.462,0,0,1,0-5.817,7.331,7.331,0,0,1,3.988-3.988,7.461,7.461,0,0,1,5.817,0,7.331,7.331,0,0,1,3.988,3.988,7.357,7.357,0,0,1,.59,2.909,7.282,7.282,0,0,1-1.319,4.243l3.648,3.648A1.3,1.3,0,0,1,81.7,144.335Z" transform="translate(-64 -128)"/>
</svg>
