<svg xmlns="http://www.w3.org/2000/svg" viewBox="0 0 15 15">
  <defs>
    <style>
      .cls-1 {
        fill: #286e01;
      }
    </style>
  </defs>
  <path id="search" class="cls-1" d="M74.385,134.346A4.047,4.047,0,1,0,73.2,137.2,3.889,3.889,0,0,0,74.385,134.346Zm4.615,7.5A1.17,1.17,0,0,1,77.846,143a1.071,1.071,0,0,1-.811-.343l-3.092-3.083a6.173,6.173,0,0,1-3.6,1.118,6.235,6.235,0,0,1-2.465-.5,6.214,6.214,0,0,1-3.38-3.38,6.325,6.325,0,0,1,0-4.931,6.215,6.215,0,0,1,3.38-3.38,6.325,6.325,0,0,1,4.931,0,6.215,6.215,0,0,1,3.38,3.38,6.236,6.236,0,0,1,.5,2.465,6.173,6.173,0,0,1-1.118,3.6l3.092,3.092A1.1,1.1,0,0,1,79,141.846Z" transform="translate(-64 -128)"/>
</svg>
