<svg xmlns="http://www.w3.org/2000/svg" viewBox="0 0 18 15.231">
  <defs>
    <style>
      .cls-1 {
        fill: #75b94e;
      }
    </style>
  </defs>
  <g id="shopping-cart" transform="translate(-1318 -112.154)">
    <path id="shopping-cart-2" data-name="shopping-cart" class="cls-1" d="M70.923,269.846a1.4,1.4,0,1,1-.411-.974A1.331,1.331,0,0,1,70.923,269.846Zm9.692,0a1.4,1.4,0,1,1-.411-.974A1.331,1.331,0,0,1,80.615,269.846ZM82,258.077v5.538a.67.67,0,0,1-.178.46.684.684,0,0,1-.438.233l-11.293,1.32a6.533,6.533,0,0,1,.141.757,2.09,2.09,0,0,1-.26.692h9.952a.692.692,0,0,1,0,1.385H68.846a.7.7,0,0,1-.692-.692,1.032,1.032,0,0,1,.087-.341,4.119,4.119,0,0,1,.173-.389q.087-.168.233-.433t.168-.319l-1.915-8.9H64.692a.692.692,0,0,1,0-1.385h2.769a.658.658,0,0,1,.308.07.63.63,0,0,1,.211.168,1.055,1.055,0,0,1,.141.265,1.686,1.686,0,0,1,.087.281q.022.114.059.319t.049.281H81.308a.7.7,0,0,1,.692.692Z" transform="translate(1254 -143.846)"/>
  </g>
</svg>
