<svg xmlns="http://www.w3.org/2000/svg" viewBox="0 0 18 16.5">
  <defs>
    <style>
      .cls-1 {
        fill: #5d5d5d;
      }
    </style>
  </defs>
  <path id="sliders" class="cls-1" d="M132.125,269.5V271H128v-1.5Zm4.125-1.5a.76.76,0,0,1,.75.75v3a.76.76,0,0,1-.75.75h-3a.76.76,0,0,1-.75-.75v-3a.76.76,0,0,1,.75-.75Zm1.875-4.5V265H128v-1.5Zm-7.5-6V259H128v-1.5ZM146,269.5V271h-8.625v-1.5ZM134.75,256a.76.76,0,0,1,.75.75v3a.76.76,0,0,1-.75.75h-3a.76.76,0,0,1-.75-.75v-3a.76.76,0,0,1,.75-.75Zm7.5,6a.76.76,0,0,1,.75.75v3a.76.76,0,0,1-.75.75h-3a.76.76,0,0,1-.75-.75v-3a.76.76,0,0,1,.75-.75Zm3.75,1.5V265h-2.625v-1.5Zm0-6V259H135.875s-2.531-1.125,0-1.5S146,257.5,146,257.5Z" transform="translate(-128 -256)"/>
</svg>
