<svg xmlns="http://www.w3.org/2000/svg" viewBox="0 0 22.7 18.496">
  <defs>
    <style>
      .cls-1 {
        fill: #afafaf;
      }
    </style>
  </defs>
  <path id="truck" class="cls-1" d="M71.567,271.133a1.7,1.7,0,1,0-.5,1.182A1.616,1.616,0,0,0,71.567,271.133Zm-5.044-6.726h5.044v-3.363H69.491a.393.393,0,0,0-.289.118l-2.562,2.562a.393.393,0,0,0-.118.289Zm16.815,6.726a1.7,1.7,0,1,0-.5,1.182A1.616,1.616,0,0,0,83.337,271.133ZM86.7,256.841v13.452a1.058,1.058,0,0,1-.053.348.5.5,0,0,1-.177.243q-.125.092-.217.151a.722.722,0,0,1-.309.079l-.3.026q-.079.007-.335,0l-.3-.007a3.363,3.363,0,0,1-6.726,0H73.248a3.363,3.363,0,0,1-6.726,0h-.841l-.3.007q-.256.007-.335,0l-.3-.026a.722.722,0,0,1-.309-.079q-.092-.059-.217-.151a.5.5,0,0,1-.177-.243,1.058,1.058,0,0,1-.053-.348.852.852,0,0,1,.841-.841v-4.2q0-.105-.007-.46t0-.5q.007-.145.033-.453a2.184,2.184,0,0,1,.085-.486,2.39,2.39,0,0,1,.184-.4,1.785,1.785,0,0,1,.3-.394l2.6-2.6a2.283,2.283,0,0,1,1.432-.591h2.1v-2.522a.852.852,0,0,1,.841-.841H85.859a.852.852,0,0,1,.841.841Z" transform="translate(-64 -256)"/>
</svg>
