<svg xmlns="http://www.w3.org/2000/svg" viewBox="0 0 25 25">
  <defs>
    <style>
      .cls-1 {
        fill: #5d5d5d;
      }
    </style>
  </defs>
  <path id="user-circle-o" class="cls-1" d="M12.5,0a12.219,12.219,0,0,1,4.855.991,12.282,12.282,0,0,1,6.655,6.655,12.4,12.4,0,0,1,.007,9.7,12.463,12.463,0,0,1-2.658,3.99A12.653,12.653,0,0,1,17.369,24a12.421,12.421,0,0,1-9.738.007,12.416,12.416,0,0,1-3.983-2.672,12.723,12.723,0,0,1-2.658-3.99,12.376,12.376,0,0,1,0-9.7A12.282,12.282,0,0,1,7.645.991,12.219,12.219,0,0,1,12.5,0Zm8.636,18.848A10.547,10.547,0,0,0,23.214,12.5a10.424,10.424,0,0,0-.851-4.157,10.586,10.586,0,0,0-5.706-5.706,10.58,10.58,0,0,0-8.315,0A10.586,10.586,0,0,0,2.637,8.343,10.424,10.424,0,0,0,1.786,12.5a10.547,10.547,0,0,0,2.079,6.348q.921-4.562,4.269-4.562A6.03,6.03,0,0,0,12.5,16.071a6.03,6.03,0,0,0,4.367-1.786Q20.215,14.286,21.136,18.848ZM17.857,9.821a5.161,5.161,0,0,0-1.569-3.788A5.161,5.161,0,0,0,12.5,4.464,5.161,5.161,0,0,0,8.712,6.034,5.161,5.161,0,0,0,7.143,9.821a5.161,5.161,0,0,0,1.569,3.788A5.161,5.161,0,0,0,12.5,15.179a5.161,5.161,0,0,0,3.788-1.569A5.161,5.161,0,0,0,17.857,9.821Z"/>
</svg>
